<?xml version="1.0" encoding="UTF-8" standalone="no"?>
<!-- Generator: Adobe Illustrator 16.0.0, SVG Export Plug-In . SVG Version: 6.00 Build 0)  -->

<svg
   xmlns:dc="http://purl.org/dc/elements/1.1/"
   xmlns:cc="http://creativecommons.org/ns#"
   xmlns:rdf="http://www.w3.org/1999/02/22-rdf-syntax-ns#"
   xmlns:svg="http://www.w3.org/2000/svg"
   xmlns="http://www.w3.org/2000/svg"
   xmlns:sodipodi="http://sodipodi.sourceforge.net/DTD/sodipodi-0.dtd"
   xmlns:inkscape="http://www.inkscape.org/namespaces/inkscape"
   version="1.1"
   id="Capa_1"
   x="0px"
   y="0px"
   width="512px"
   height="512px"
   viewBox="0 0 512 512"
   style="enable-background:new 0 0 512 512;"
   xml:space="preserve"
   sodipodi:docname="ios.svg"
   inkscape:version="0.92.3 (2405546, 2018-03-11)"><metadata
   id="metadata41"><rdf:RDF><cc:Work
       rdf:about=""><dc:format>image/svg+xml</dc:format><dc:type
         rdf:resource="http://purl.org/dc/dcmitype/StillImage" /></cc:Work></rdf:RDF></metadata><defs
   id="defs39" /><sodipodi:namedview
   pagecolor="#ffffff"
   bordercolor="#666666"
   borderopacity="1"
   objecttolerance="10"
   gridtolerance="10"
   guidetolerance="10"
   inkscape:pageopacity="0"
   inkscape:pageshadow="2"
   inkscape:window-width="1366"
   inkscape:window-height="717"
   id="namedview37"
   showgrid="false"
   inkscape:zoom="0.4609375"
   inkscape:cx="-139.9322"
   inkscape:cy="256"
   inkscape:window-x="0"
   inkscape:window-y="27"
   inkscape:window-maximized="1"
   inkscape:current-layer="Capa_1" />

<g
   id="g6">
</g>
<g
   id="g8">
</g>
<g
   id="g10">
</g>
<g
   id="g12">
</g>
<g
   id="g14">
</g>
<g
   id="g16">
</g>
<g
   id="g18">
</g>
<g
   id="g20">
</g>
<g
   id="g22">
</g>
<g
   id="g24">
</g>
<g
   id="g26">
</g>
<g
   id="g28">
</g>
<g
   id="g30">
</g>
<g
   id="g32">
</g>
<g
   id="g34">
</g>

<path
   d="m 53.93997,89.213173 c 0,6.575682 -2.92676,11.440167 -7.94758,11.440167 -4.18109,0 -7.31867,-4.864485 -7.31867,-11.440167 0,-6.29689 3.34488,-11.44496 7.73677,-11.44496 4.60272,0 7.52948,5.14807 7.52948,11.44496 z M 42.36643,433.06676 V 170.03932 h 7.88083 V 433.06676 Z M 312.37,245.65971 c 0,132.60967 -53.80958,192.8916 -112.71024,192.8916 -60.16906,0 -108.89457,-65.20408 -108.89457,-187.40706 0,-125.4764 50.42254,-192.881997 113.13186,-192.881997 61.43744,-0.01 108.47295,66.295237 108.47295,187.397457 z m -213.61858,2.73986 c 0,100.5484 35.62008,178.65872 101.28076,178.65872 66.11745,0 104.03889,-80.51371 104.03889,-179.80273 0,-92.07402 -30.38493,-176.101497 -99.72076,-176.101497 -69.33583,0 -105.59889,79.114937 -105.59889,177.245507 z m 242.54189,156.16775 c 13.22138,12.05543 36.0417,23.69746 55.66823,23.69746 37.25035,0 70.37934,-35.65194 70.37934,-88.12766 0,-48.69756 -22.06843,-74.10625 -59.53661,-95.93387 -33.53305,-19.53478 -63.68258,-40.73753 -63.68258,-92.79505 0,-54.244605 31.23872,-92.612377 73.69612,-92.612377 22.83085,0 40.05414,8.76757 48.06496,16.43921 l -3.18325,9.45975 c -6.8092,-6.57087 -25.21302,-14.9443 -45.23307,-14.9443 -44.87118,0 -64.4169,46.385507 -64.4169,80.532937 0,47.1642 26.72384,62.93528 61.1704,85.40221 40.05064,26.84591 61.27582,50.51933 61.27582,102.03369 0,55.34535 -28.83548,100.2696 -80.10477,100.2696 -21.23221,0 -45.66173,-9.85872 -57.67798,-22.46693 z"
   id="path2"
   inkscape:connector-curvature="0"
   style="fill:#ffffff;stroke-width:4.10959291" /></svg>